<?xml version="1.0" encoding="UTF-8"?> <svg xmlns="http://www.w3.org/2000/svg" xmlns:ooo="http://xml.openoffice.org/svg/export" xmlns:xlink="http://www.w3.org/1999/xlink" xmlns:presentation="http://sun.com/xmlns/staroffice/presentation" xmlns:smil="http://www.w3.org/2001/SMIL20/" xmlns:anim="urn:oasis:names:tc:opendocument:xmlns:animation:1.0" xmlns:svg="urn:oasis:names:tc:opendocument:xmlns:svg-compatible:1.0" version="1.2" width="90.26mm" height="12.56mm" viewBox="0 0 9026 1256" preserveAspectRatio="xMidYMid" fill-rule="evenodd" stroke-width="28.222" stroke-linejoin="round" xml:space="preserve"> <defs class="ClipPathGroup"> <clipPath id="presentation_clip_path"> <rect x="0" y="0" width="9026" height="1256"></rect> </clipPath> <clipPath id="presentation_clip_path_shrink"> <rect x="9" y="1" width="9008" height="1254"></rect> </clipPath> </defs> <defs class="TextShapeIndex"> <g ooo:slide="id1" ooo:id-list="id3 id4 id5 id6 id7 id8 id9 id10 id11 id12 id13 id14 id15 id16 id17 id18 id19 id20 id21 id22 id23 id24 id25 id26 id27 id28 id29 id30 id31 id32 id33 id34 id35 id36 id37 id38 id39 id40 id41 id42 id43 id44 id45 id46 id47 id48 id49 id50 id51 id52 id53 id54 id55"></g> </defs> <defs class="EmbeddedBulletChars"> <g id="bullet-char-template-57356" transform="scale(0.00048828125,-0.00048828125)"> <path d="M 580,1141 L 1163,571 580,0 -4,571 580,1141 Z"></path> </g> <g id="bullet-char-template-57354" transform="scale(0.00048828125,-0.00048828125)"> <path d="M 8,1128 L 1137,1128 1137,0 8,0 8,1128 Z"></path> </g> <g id="bullet-char-template-10146" transform="scale(0.00048828125,-0.00048828125)"> <path d="M 174,0 L 602,739 174,1481 1456,739 174,0 Z M 1358,739 L 309,1346 659,739 1358,739 Z"></path> </g> <g id="bullet-char-template-10132" transform="scale(0.00048828125,-0.00048828125)"> <path d="M 2015,739 L 1276,0 717,0 1260,543 174,543 174,936 1260,936 717,1481 1274,1481 2015,739 Z"></path> </g> <g id="bullet-char-template-10007" transform="scale(0.00048828125,-0.00048828125)"> <path d="M 0,-2 C -7,14 -16,27 -25,37 L 356,567 C 262,823 215,952 215,954 215,979 228,992 255,992 264,992 276,990 289,987 310,991 331,999 354,1012 L 381,999 492,748 772,1049 836,1024 860,1049 C 881,1039 901,1025 922,1006 886,937 835,863 770,784 769,783 710,716 594,584 L 774,223 C 774,196 753,168 711,139 L 727,119 C 717,90 699,76 672,76 641,76 570,178 457,381 L 164,-76 C 142,-110 111,-127 72,-127 30,-127 9,-110 8,-76 1,-67 -2,-52 -2,-32 -2,-23 -1,-13 0,-2 Z"></path> </g> <g id="bullet-char-template-10004" transform="scale(0.00048828125,-0.00048828125)"> <path d="M 285,-33 C 182,-33 111,30 74,156 52,228 41,333 41,471 41,549 55,616 82,672 116,743 169,778 240,778 293,778 328,747 346,684 L 369,508 C 377,444 397,411 428,410 L 1163,1116 C 1174,1127 1196,1133 1229,1133 1271,1133 1292,1118 1292,1087 L 1292,965 C 1292,929 1282,901 1262,881 L 442,47 C 390,-6 338,-33 285,-33 Z"></path> </g> <g id="bullet-char-template-9679" transform="scale(0.00048828125,-0.00048828125)"> <path d="M 813,0 C 632,0 489,54 383,161 276,268 223,411 223,592 223,773 276,916 383,1023 489,1130 632,1184 813,1184 992,1184 1136,1130 1245,1023 1353,916 1407,772 1407,592 1407,412 1353,268 1245,161 1136,54 992,0 813,0 Z"></path> </g> <g id="bullet-char-template-8226" transform="scale(0.00048828125,-0.00048828125)"> <path d="M 346,457 C 273,457 209,483 155,535 101,586 74,649 74,723 74,796 101,859 155,911 209,963 273,989 346,989 419,989 480,963 531,910 582,859 608,796 608,723 608,648 583,586 532,535 482,483 420,457 346,457 Z"></path> </g> <g id="bullet-char-template-8211" transform="scale(0.00048828125,-0.00048828125)"> <path d="M -4,459 L 1135,459 1135,606 -4,606 -4,459 Z"></path> </g> <g id="bullet-char-template-61548" transform="scale(0.00048828125,-0.00048828125)"> <path d="M 173,740 C 173,903 231,1043 346,1159 462,1274 601,1332 765,1332 928,1332 1067,1274 1183,1159 1299,1043 1357,903 1357,740 1357,577 1299,437 1183,322 1067,206 928,148 765,148 601,148 462,206 346,322 231,437 173,577 173,740 Z"></path> </g> </defs> <g> <g id="id2" class="Master_Slide"> <g id="bg-id2" class="Background"></g> <g id="bo-id2" class="BackgroundObjects"></g> </g> </g> <g class="SlideGroup"> <g> <g id="container-id1"> <g id="id1" class="Slide" clip-path="url(#presentation_clip_path)"> <g class="Page"> <g class="com.sun.star.drawing.ClosedBezierShape"> <g id="id3"> <rect class="BoundingBox" stroke="none" fill="none" x="6037" y="495" width="462" height="627"></rect> <path fill="#d1d5db" stroke="none" d="M 6436,768 C 6435,739 6433,717 6430,704 6428,690 6424,674 6416,653 6405,625 6385,599 6358,581 6330,562 6299,553 6267,553 6235,553 6205,562 6179,581 6151,599 6132,625 6119,653 6112,674 6106,692 6105,706 6102,721 6100,741 6099,768 L 6436,768 Z M 6497,820 L 6099,820 C 6099,898 6114,958 6147,1000 6179,1041 6225,1061 6285,1061 6318,1061 6347,1056 6371,1046 6395,1034 6418,1015 6443,989 L 6489,1027 C 6458,1059 6428,1083 6397,1098 6365,1113 6327,1120 6281,1120 6229,1120 6185,1108 6148,1084 6112,1061 6085,1025 6065,978 6046,932 6037,874 6037,806 6037,757 6043,713 6053,675 6063,636 6079,606 6098,579 6117,552 6142,532 6170,518 6200,504 6232,496 6267,496 6303,496 6335,502 6364,516 6391,529 6416,550 6435,575 6455,601 6471,629 6482,667 6491,703 6497,744 6497,791 L 6497,820 Z"></path> </g> </g> <g class="com.sun.star.drawing.ClosedBezierShape"> <g id="id4"> <rect class="BoundingBox" stroke="none" fill="none" x="6628" y="307" width="272" height="808"></rect> <path fill="#d1d5db" stroke="none" d="M 6898,1113 L 6845,1113 C 6817,1113 6792,1106 6770,1092 6750,1079 6733,1060 6723,1036 6712,1011 6707,985 6707,953 L 6707,552 6628,552 6628,504 6707,504 6707,308 6769,308 6769,504 6898,504 6898,552 6769,552 6769,954 C 6769,1022 6798,1056 6856,1056 L 6898,1056 6898,1113 Z"></path> </g> </g> <g class="com.sun.star.drawing.ClosedBezierShape"> <g id="id5"> <rect class="BoundingBox" stroke="none" fill="none" x="7023" y="495" width="465" height="627"></rect> <path fill="#d1d5db" stroke="none" d="M 7486,939 C 7486,976 7476,1008 7457,1034 7438,1062 7412,1084 7377,1098 7343,1113 7302,1120 7256,1120 7159,1120 7080,1090 7023,1032 L 7066,989 C 7110,1038 7173,1064 7254,1064 7309,1064 7352,1052 7382,1032 7412,1011 7426,980 7426,939 7426,907 7418,883 7400,866 7382,850 7355,841 7318,836 L 7222,827 C 7105,816 7048,763 7048,667 7048,633 7058,604 7074,579 7091,552 7114,532 7146,518 7177,504 7214,496 7254,496 7295,496 7332,502 7368,514 7402,525 7432,541 7456,561 L 7415,604 C 7371,570 7318,552 7256,552 7208,552 7171,562 7146,584 7121,604 7109,630 7109,667 7109,701 7118,723 7138,740 7155,757 7185,766 7226,771 L 7318,778 C 7371,783 7413,797 7443,820 7471,843 7486,883 7486,939 Z"></path> </g> </g> <g class="com.sun.star.drawing.PolyPolygonShape"> <g id="id6"> <rect class="BoundingBox" stroke="none" fill="none" x="7638" y="207" width="157" height="908"></rect> <path fill="#d1d5db" stroke="none" d="M 7793,1113 L 7638,1113 7638,454 7793,454 7793,1113 Z M 7793,342 L 7638,342 7638,208 7793,208 7793,342 Z"></path> </g> </g> <g class="com.sun.star.drawing.ClosedBezierShape"> <g id="id7"> <rect class="BoundingBox" stroke="none" fill="none" x="7966" y="445" width="519" height="670"></rect> <path fill="#d1d5db" stroke="none" d="M 8483,1113 L 8325,1113 8325,713 C 8325,672 8315,641 8293,622 8275,604 8251,595 8224,595 8197,595 8173,604 8154,622 8133,641 8121,672 8121,713 L 8121,1113 7966,1113 7966,454 8118,454 8118,515 C 8158,469 8210,446 8273,446 8334,446 8383,467 8418,505 8461,550 8483,613 8483,690 L 8483,1113 Z"></path> </g> </g> <g class="com.sun.star.drawing.ClosedBezierShape"> <g id="id8"> <rect class="BoundingBox" stroke="none" fill="none" x="8603" y="201" width="335" height="914"></rect> <path fill="#d1d5db" stroke="none" d="M 8936,599 L 8823,599 8823,1113 8668,1113 8668,599 8603,599 8603,473 8668,473 8668,390 C 8668,339 8682,296 8711,260 8744,221 8789,202 8849,202 L 8936,202 8936,341 8876,341 C 8841,341 8823,361 8823,401 L 8823,473 8936,473 8936,599 Z"></path> </g> </g> <g class="com.sun.star.drawing.ClosedBezierShape"> <g id="id9"> <rect class="BoundingBox" stroke="none" fill="none" x="4662" y="25" width="849" height="1201"></rect> <path fill="#d1d5db" stroke="none" d="M 5210,26 C 5184,26 5157,48 5148,74 L 4993,602 C 4986,627 4979,647 4979,647 4979,647 4958,647 4931,647 L 4695,647 C 4669,647 4656,670 4664,695 L 4831,1177 C 4839,1204 4868,1224 4896,1224 L 5061,1224 C 5088,1224 5116,1204 5126,1177 L 5506,73 C 5516,48 5500,26 5475,26 L 5210,26 Z"></path> </g> </g> <g class="com.sun.star.drawing.ClosedBezierShape"> <g id="id10"> <rect class="BoundingBox" stroke="none" fill="none" x="4447" y="25" width="429" height="314"></rect> <path fill="#d1d5db" stroke="none" d="M 4450,73 C 4442,48 4456,26 4483,26 L 4745,26 C 4770,26 4799,48 4806,74 L 4872,290 C 4879,315 4863,338 4838,338 L 4588,338 C 4562,338 4533,316 4523,290 L 4450,73 Z"></path> </g> </g> <g class="com.sun.star.drawing.ClosedBezierShape"> <g id="id11"> <rect class="BoundingBox" stroke="none" fill="none" x="3887" y="25" width="428" height="314"></rect> <path fill="#d1d5db" stroke="none" d="M 3891,73 C 3881,48 3897,26 3922,26 L 4186,26 C 4212,26 4239,48 4248,74 L 4312,290 C 4320,315 4305,338 4279,338 L 4031,338 C 4004,338 3974,316 3966,290 L 3891,73 Z"></path> </g> </g> <g class="com.sun.star.drawing.PolyPolygonShape"> <g id="id12"> <rect class="BoundingBox" stroke="none" fill="none" x="1201" y="38" width="171" height="275"></rect> <path fill="#d1d5db" stroke="none" d="M 1371,312 L 1202,312 1202,39 1371,39 1371,66 1232,66 1232,162 1351,162 1351,187 1232,187 1232,286 1371,286 1371,312 Z"></path> </g> </g> <g class="com.sun.star.drawing.ClosedBezierShape"> <g id="id13"> <rect class="BoundingBox" stroke="none" fill="none" x="1409" y="120" width="155" height="195"></rect> <path fill="#d1d5db" stroke="none" d="M 1563,256 C 1563,274 1556,288 1542,298 1528,309 1510,314 1486,314 1454,314 1428,305 1410,287 L 1428,268 C 1442,283 1461,290 1486,290 1520,290 1536,279 1536,257 1536,240 1526,231 1505,229 L 1474,227 C 1437,224 1418,206 1418,176 1418,160 1424,146 1437,136 1450,126 1467,121 1487,121 1515,121 1538,128 1555,142 L 1537,160 C 1524,149 1507,144 1486,144 1458,144 1445,155 1445,176 1445,192 1456,201 1477,203 L 1508,206 C 1545,209 1563,226 1563,256 Z"></path> </g> </g> <g class="com.sun.star.drawing.ClosedBezierShape"> <g id="id14"> <rect class="BoundingBox" stroke="none" fill="none" x="1605" y="120" width="147" height="195"></rect> <path fill="#d1d5db" stroke="none" d="M 1751,286 C 1742,296 1732,303 1723,308 1714,312 1703,314 1690,314 1665,314 1645,306 1630,289 1614,273 1606,248 1606,218 1606,186 1614,162 1630,146 1645,129 1665,121 1690,121 1703,121 1714,123 1723,128 1732,131 1742,139 1751,149 L 1733,167 C 1720,153 1706,146 1690,146 1671,146 1656,153 1646,167 1638,179 1634,195 1634,218 1634,240 1638,256 1646,268 1656,282 1671,289 1690,289 1705,289 1720,282 1733,268 L 1751,286 Z"></path> </g> </g> <g class="com.sun.star.drawing.ClosedBezierShape"> <g id="id15"> <rect class="BoundingBox" stroke="none" fill="none" x="1793" y="120" width="156" height="195"></rect> <path fill="#d1d5db" stroke="none" d="M 1920,218 C 1920,189 1915,169 1905,160 1896,150 1884,146 1871,146 1857,146 1846,150 1837,160 1827,170 1822,189 1822,218 1822,246 1827,265 1837,275 1846,285 1857,289 1871,289 1884,289 1896,284 1905,275 1915,266 1920,247 1920,218 Z M 1948,218 C 1948,252 1940,277 1925,293 1911,307 1893,314 1871,314 1849,314 1831,307 1817,293 1802,277 1794,252 1794,218 1794,183 1802,158 1817,142 1831,128 1849,121 1871,121 1893,121 1911,128 1925,142 1940,158 1948,183 1948,218 Z"></path> </g> </g> <g class="com.sun.star.drawing.ClosedBezierShape"> <g id="id16"> <rect class="BoundingBox" stroke="none" fill="none" x="2005" y="38" width="69" height="275"></rect> <path fill="#d1d5db" stroke="none" d="M 2073,312 L 2053,312 C 2038,312 2026,307 2018,298 2010,289 2006,277 2006,261 L 2006,39 2033,39 2033,260 C 2033,279 2042,287 2058,287 L 2073,287 2073,312 Z"></path> </g> </g> <g class="com.sun.star.drawing.ClosedBezierShape"> <g id="id17"> <rect class="BoundingBox" stroke="none" fill="none" x="2105" y="120" width="151" height="195"></rect> <path fill="#d1d5db" stroke="none" d="M 2227,245 L 2227,225 2174,225 C 2146,225 2133,236 2133,258 2133,279 2147,290 2175,290 2195,290 2209,286 2218,277 2224,271 2227,261 2227,245 Z M 2255,311 L 2227,311 2227,293 C 2214,307 2195,314 2173,314 2149,314 2131,308 2120,296 2110,287 2106,274 2106,258 2106,241 2111,228 2122,218 2134,209 2150,204 2170,204 L 2227,204 2227,186 C 2227,158 2211,145 2179,145 2157,145 2141,152 2131,166 L 2113,149 C 2121,139 2131,131 2141,127 2150,123 2163,121 2179,121 2229,121 2255,142 2255,184 L 2255,311 Z"></path> </g> </g> <g class="com.sun.star.drawing.PolyPolygonShape"> <g id="id18"> <rect class="BoundingBox" stroke="none" fill="none" x="2393" y="38" width="188" height="274"></rect> <path fill="#d1d5db" stroke="none" d="M 2580,66 L 2501,66 2501,311 2472,311 2472,66 2394,66 2394,39 2580,39 2580,66 Z"></path> </g> </g> <g class="com.sun.star.drawing.ClosedBezierShape"> <g id="id19"> <rect class="BoundingBox" stroke="none" fill="none" x="2615" y="25" width="156" height="290"></rect> <path fill="#d1d5db" stroke="none" d="M 2713,85 L 2688,85 2646,26 2680,26 2713,85 Z M 2742,204 C 2742,191 2740,181 2736,173 2729,154 2714,144 2693,144 2671,144 2656,154 2649,173 2646,181 2644,191 2643,204 L 2742,204 Z M 2770,225 L 2643,225 C 2643,245 2648,261 2657,272 2667,284 2681,289 2698,289 2717,289 2733,282 2748,268 L 2767,285 C 2756,295 2747,302 2737,307 2726,311 2713,314 2697,314 2672,314 2652,306 2638,291 2623,274 2616,250 2616,218 2616,187 2623,163 2636,147 2650,130 2669,121 2693,121 2717,121 2736,130 2749,146 2763,162 2770,184 2770,212 L 2770,225 Z"></path> </g> </g> <g class="com.sun.star.drawing.ClosedBezierShape"> <g id="id20"> <rect class="BoundingBox" stroke="none" fill="none" x="2817" y="120" width="148" height="195"></rect> <path fill="#d1d5db" stroke="none" d="M 2964,286 C 2953,296 2944,303 2935,308 2926,312 2914,314 2901,314 2877,314 2857,306 2842,289 2826,273 2818,248 2818,218 2818,186 2826,162 2842,146 2857,129 2877,121 2901,121 2914,121 2926,123 2935,128 2944,131 2953,139 2964,149 L 2944,167 C 2932,153 2917,146 2901,146 2882,146 2868,153 2858,167 2850,179 2846,195 2846,218 2846,240 2850,256 2858,268 2868,282 2882,289 2901,289 2917,289 2932,282 2944,268 L 2964,286 Z"></path> </g> </g> <g class="com.sun.star.drawing.ClosedBezierShape"> <g id="id21"> <rect class="BoundingBox" stroke="none" fill="none" x="3014" y="120" width="151" height="193"></rect> <path fill="#d1d5db" stroke="none" d="M 3164,312 L 3136,312 3136,195 C 3136,162 3121,146 3090,146 3075,146 3064,150 3056,158 3047,167 3043,179 3043,195 L 3043,312 3015,312 3015,123 3043,123 3043,144 C 3057,129 3074,121 3096,121 3116,121 3132,127 3144,139 3157,151 3164,169 3164,191 L 3164,312 Z"></path> </g> </g> <g class="com.sun.star.drawing.PolyPolygonShape"> <g id="id22"> <rect class="BoundingBox" stroke="none" fill="none" x="3228" y="38" width="33" height="274"></rect> <path fill="#d1d5db" stroke="none" d="M 3258,311 L 3230,311 3230,123 3258,123 3258,311 Z M 3260,70 L 3229,70 3229,39 3260,39 3260,70 Z"></path> </g> </g> <g class="com.sun.star.drawing.ClosedBezierShape"> <g id="id23"> <rect class="BoundingBox" stroke="none" fill="none" x="3316" y="120" width="147" height="195"></rect> <path fill="#d1d5db" stroke="none" d="M 3462,286 C 3452,296 3443,303 3434,308 3425,312 3413,314 3400,314 3376,314 3356,306 3341,289 3325,273 3317,248 3317,218 3317,186 3325,162 3341,146 3356,129 3376,121 3400,121 3413,121 3425,123 3434,128 3443,131 3452,139 3462,149 L 3443,167 C 3431,153 3416,146 3400,146 3381,146 3367,153 3356,167 3349,179 3344,195 3344,218 3344,240 3349,256 3356,268 3367,282 3381,289 3400,289 3416,289 3431,282 3443,268 L 3462,286 Z"></path> </g> </g> <g class="com.sun.star.drawing.ClosedBezierShape"> <g id="id24"> <rect class="BoundingBox" stroke="none" fill="none" x="3499" y="120" width="151" height="195"></rect> <path fill="#d1d5db" stroke="none" d="M 3622,245 L 3622,225 3569,225 C 3541,225 3526,236 3526,258 3526,279 3541,290 3570,290 3589,290 3603,286 3612,277 3619,271 3622,261 3622,245 Z M 3649,311 L 3622,311 3622,293 C 3608,307 3590,314 3567,314 3543,314 3525,308 3514,296 3505,287 3500,274 3500,258 3500,241 3505,228 3517,218 3528,209 3544,204 3565,204 L 3622,204 3622,186 C 3622,158 3605,145 3573,145 3552,145 3536,152 3526,166 L 3507,149 C 3516,139 3525,131 3535,127 3545,123 3558,121 3574,121 3624,121 3649,142 3649,184 L 3649,311 Z"></path> </g> </g> <g class="com.sun.star.drawing.ClosedBezierShape"> <g id="id25"> <rect class="BoundingBox" stroke="none" fill="none" x="26" y="493" width="188" height="275"></rect> <path fill="#d1d5db" stroke="none" d="M 213,689 C 213,713 205,732 188,746 171,759 148,766 119,766 82,766 50,755 27,730 L 46,710 C 66,730 91,741 121,741 140,741 156,736 167,727 179,718 185,705 185,690 185,675 180,664 172,656 165,650 153,645 136,643 L 105,638 C 57,631 34,611 34,571 34,548 41,528 57,515 73,501 94,494 121,494 153,494 179,504 202,523 L 183,543 C 166,527 145,519 119,519 102,519 88,523 78,533 68,542 62,554 62,569 62,583 66,594 75,601 84,608 96,613 111,615 L 141,621 C 163,624 179,627 191,635 206,648 213,666 213,689 Z"></path> </g> </g> <g class="com.sun.star.drawing.ClosedBezierShape"> <g id="id26"> <rect class="BoundingBox" stroke="none" fill="none" x="267" y="579" width="150" height="189"></rect> <path fill="#d1d5db" stroke="none" d="M 416,764 L 388,764 388,743 C 375,758 357,766 335,766 314,766 298,760 286,749 274,736 268,719 268,696 L 268,580 295,580 295,692 C 295,725 311,742 341,742 355,742 367,737 375,729 384,720 388,708 388,692 L 388,580 416,580 416,764 Z"></path> </g> </g> <g class="com.sun.star.drawing.ClosedBezierShape"> <g id="id27"> <rect class="BoundingBox" stroke="none" fill="none" x="483" y="577" width="152" height="273"></rect> <path fill="#d1d5db" stroke="none" d="M 606,670 C 606,648 603,631 598,624 590,610 577,602 559,602 540,602 527,610 520,624 514,631 511,648 511,670 511,692 514,709 520,719 527,735 540,742 559,742 577,742 590,735 598,719 603,709 606,692 606,670 Z M 634,670 C 634,708 626,735 611,750 600,761 584,766 565,766 542,766 524,758 511,742 L 511,848 484,848 484,580 511,580 511,602 C 524,586 542,578 565,578 584,578 600,583 611,594 626,610 634,632 634,670 Z"></path> </g> </g> <g class="com.sun.star.drawing.ClosedBezierShape"> <g id="id28"> <rect class="BoundingBox" stroke="none" fill="none" x="681" y="577" width="156" height="191"></rect> <path fill="#d1d5db" stroke="none" d="M 809,657 C 808,643 806,633 803,627 796,610 781,601 759,601 738,601 723,610 715,627 712,633 710,643 710,657 L 809,657 Z M 836,677 L 710,677 C 710,698 714,714 724,725 733,736 747,742 765,742 783,742 800,735 814,721 L 833,737 C 823,748 813,755 803,759 792,764 780,766 764,766 739,766 719,758 705,743 689,726 682,702 682,670 682,640 689,620 703,603 716,586 735,578 759,578 783,578 803,586 816,602 829,619 836,637 836,664 L 836,677 Z"></path> </g> </g> <g class="com.sun.star.drawing.ClosedBezierShape"> <g id="id29"> <rect class="BoundingBox" stroke="none" fill="none" x="894" y="577" width="127" height="189"></rect> <path fill="#d1d5db" stroke="none" d="M 1020,596 L 1000,616 C 991,607 980,602 968,602 954,602 943,607 935,617 927,626 922,634 922,648 L 922,764 895,764 895,580 922,580 922,603 C 933,586 951,578 975,578 993,578 1009,583 1020,596 Z"></path> </g> </g> <g class="com.sun.star.drawing.PolyPolygonShape"> <g id="id30"> <rect class="BoundingBox" stroke="none" fill="none" x="1053" y="495" width="33" height="271"></rect> <path fill="#d1d5db" stroke="none" d="M 1083,764 L 1056,764 1056,580 1083,580 1083,764 Z M 1085,527 L 1054,527 1054,496 1085,496 1085,527 Z"></path> </g> </g> <g class="com.sun.star.drawing.ClosedBezierShape"> <g id="id31"> <rect class="BoundingBox" stroke="none" fill="none" x="1141" y="577" width="156" height="191"></rect> <path fill="#d1d5db" stroke="none" d="M 1269,670 C 1269,641 1264,626 1254,616 1245,607 1233,602 1220,602 1206,602 1195,607 1185,616 1175,626 1170,641 1170,670 1170,698 1175,718 1185,728 1195,737 1206,742 1220,742 1233,742 1245,737 1254,728 1264,718 1269,699 1269,670 Z M 1296,670 C 1296,705 1289,730 1273,745 1259,759 1241,766 1220,766 1197,766 1179,759 1165,745 1150,730 1142,705 1142,670 1142,636 1150,615 1165,599 1179,585 1197,578 1220,578 1241,578 1259,585 1273,599 1289,615 1296,636 1296,670 Z"></path> </g> </g> <g class="com.sun.star.drawing.ClosedBezierShape"> <g id="id32"> <rect class="BoundingBox" stroke="none" fill="none" x="1354" y="577" width="128" height="189"></rect> <path fill="#d1d5db" stroke="none" d="M 1481,596 L 1460,616 C 1451,607 1440,602 1428,602 1414,602 1403,607 1395,617 1387,626 1383,634 1383,648 L 1383,764 1355,764 1355,580 1383,580 1383,603 C 1394,586 1411,578 1435,578 1454,578 1469,583 1481,596 Z"></path> </g> </g> <g class="com.sun.star.drawing.ClosedBezierShape"> <g id="id33"> <rect class="BoundingBox" stroke="none" fill="none" x="1601" y="495" width="151" height="273"></rect> <path fill="#d1d5db" stroke="none" d="M 1724,670 C 1724,648 1721,631 1715,624 1708,610 1695,602 1676,602 1658,602 1645,610 1637,624 1632,631 1629,648 1629,670 1629,692 1632,709 1637,719 1645,735 1658,742 1676,742 1695,742 1708,735 1715,719 1721,709 1724,692 1724,670 Z M 1751,764 L 1724,764 1724,741 C 1711,758 1693,766 1670,766 1651,766 1635,761 1625,750 1609,735 1602,708 1602,670 1602,632 1609,610 1625,594 1635,583 1651,578 1671,578 1694,578 1711,586 1724,602 L 1724,496 1751,496 1751,764 Z"></path> </g> </g> <g class="com.sun.star.drawing.PolyPolygonShape"> <g id="id34"> <rect class="BoundingBox" stroke="none" fill="none" x="1818" y="495" width="35" height="65"></rect> <path fill="#d1d5db" stroke="none" d="M 1852,528 L 1819,559 1819,496 1852,496 1852,528 Z"></path> </g> </g> <g class="com.sun.star.drawing.PolyPolygonShape"> <g id="id35"> <rect class="BoundingBox" stroke="none" fill="none" x="1924" y="495" width="171" height="271"></rect> <path fill="#d1d5db" stroke="none" d="M 2094,764 L 1925,764 1925,496 2094,496 2094,522 1954,522 1954,618 2073,618 2073,640 1954,640 1954,738 2094,738 2094,764 Z"></path> </g> </g> <g class="com.sun.star.drawing.ClosedBezierShape"> <g id="id36"> <rect class="BoundingBox" stroke="none" fill="none" x="2148" y="577" width="151" height="189"></rect> <path fill="#d1d5db" stroke="none" d="M 2298,764 L 2270,764 2270,648 C 2270,619 2255,602 2223,602 2209,602 2198,606 2189,615 2181,624 2177,632 2177,648 L 2177,764 2149,764 2149,580 2177,580 2177,601 C 2191,585 2208,578 2230,578 2250,578 2266,583 2278,596 2291,608 2298,626 2298,644 L 2298,764 Z"></path> </g> </g> <g class="com.sun.star.drawing.ClosedBezierShape"> <g id="id37"> <rect class="BoundingBox" stroke="none" fill="none" x="2354" y="577" width="151" height="275"></rect> <path fill="#d1d5db" stroke="none" d="M 2476,669 C 2476,647 2474,631 2468,624 2461,610 2448,602 2429,602 2411,602 2397,610 2390,624 2385,631 2382,647 2382,669 2382,690 2385,706 2390,717 2397,732 2411,739 2429,739 2448,739 2461,732 2468,717 2474,706 2476,690 2476,669 Z M 2504,770 C 2504,794 2497,813 2482,828 2468,843 2449,850 2425,850 2411,850 2400,849 2390,845 2381,841 2371,835 2361,825 L 2379,808 C 2387,814 2394,819 2399,822 2406,824 2414,826 2424,826 2442,826 2455,820 2464,809 2472,799 2476,785 2476,769 L 2476,739 C 2463,755 2445,764 2423,764 2404,764 2389,758 2378,747 2362,732 2355,705 2355,668 2355,632 2362,610 2378,594 2388,583 2404,578 2424,578 2446,578 2463,586 2476,602 L 2476,580 2504,580 2504,770 Z"></path> </g> </g> <g class="com.sun.star.drawing.PolyPolygonShape"> <g id="id38"> <rect class="BoundingBox" stroke="none" fill="none" x="2569" y="495" width="33" height="271"></rect> <path fill="#d1d5db" stroke="none" d="M 2600,764 L 2572,764 2572,580 2600,580 2600,764 Z M 2601,527 L 2570,527 2570,496 2601,496 2601,527 Z"></path> </g> </g> <g class="com.sun.star.drawing.ClosedBezierShape"> <g id="id39"> <rect class="BoundingBox" stroke="none" fill="none" x="2668" y="577" width="149" height="189"></rect> <path fill="#d1d5db" stroke="none" d="M 2816,764 L 2789,764 2789,648 C 2789,619 2774,602 2743,602 2728,602 2717,606 2708,615 2700,624 2696,632 2696,648 L 2696,764 2669,764 2669,580 2696,580 2696,601 C 2710,585 2727,578 2749,578 2769,578 2785,583 2797,596 2810,608 2816,626 2816,644 L 2816,764 Z"></path> </g> </g> <g class="com.sun.star.drawing.ClosedBezierShape"> <g id="id40"> <rect class="BoundingBox" stroke="none" fill="none" x="2853" y="579" width="163" height="268"></rect> <path fill="#d1d5db" stroke="none" d="M 3015,580 L 2930,810 C 2926,819 2922,827 2917,832 2907,840 2895,845 2880,845 L 2868,845 2868,820 2877,820 C 2885,820 2893,819 2896,815 2900,812 2904,806 2907,797 L 2921,760 2854,580 2883,580 2935,727 2986,580 3015,580 Z"></path> </g> </g> <g class="com.sun.star.drawing.ClosedBezierShape"> <g id="id41"> <rect class="BoundingBox" stroke="none" fill="none" x="3043" y="577" width="156" height="191"></rect> <path fill="#d1d5db" stroke="none" d="M 3171,657 C 3170,643 3168,633 3165,627 3157,610 3143,601 3121,601 3100,601 3085,610 3077,627 3074,633 3072,643 3072,657 L 3171,657 Z M 3198,677 L 3072,677 C 3072,698 3076,714 3086,725 3095,736 3109,742 3127,742 3145,742 3162,735 3176,721 L 3195,737 C 3185,748 3175,755 3166,759 3155,764 3141,766 3126,766 3100,766 3081,758 3067,743 3051,726 3044,702 3044,670 3044,640 3051,620 3065,603 3078,586 3097,578 3121,578 3145,578 3164,586 3178,602 3191,619 3198,637 3198,664 L 3198,677 Z"></path> </g> </g> <g class="com.sun.star.drawing.ClosedBezierShape"> <g id="id42"> <rect class="BoundingBox" stroke="none" fill="none" x="3256" y="577" width="128" height="189"></rect> <path fill="#d1d5db" stroke="none" d="M 3383,596 L 3362,616 C 3352,607 3342,602 3329,602 3316,602 3305,607 3297,617 3289,626 3285,634 3285,648 L 3285,764 3257,764 3257,580 3285,580 3285,603 C 3296,586 3313,578 3337,578 3356,578 3370,583 3383,596 Z"></path> </g> </g> <g class="com.sun.star.drawing.PolyPolygonShape"> <g id="id43"> <rect class="BoundingBox" stroke="none" fill="none" x="3415" y="495" width="33" height="271"></rect> <path fill="#d1d5db" stroke="none" d="M 3445,764 L 3418,764 3418,580 3445,580 3445,764 Z M 3447,527 L 3416,527 3416,496 3447,496 3447,527 Z"></path> </g> </g> <g class="com.sun.star.drawing.ClosedBezierShape"> <g id="id44"> <rect class="BoundingBox" stroke="none" fill="none" x="3499" y="577" width="151" height="191"></rect> <path fill="#d1d5db" stroke="none" d="M 3622,698 L 3622,677 3569,677 C 3541,677 3526,688 3526,710 3526,732 3541,742 3570,742 3589,742 3603,739 3612,730 3619,724 3622,713 3622,698 Z M 3649,764 L 3622,764 3622,746 C 3608,760 3590,766 3567,766 3543,766 3525,760 3514,749 3505,739 3500,726 3500,711 3500,694 3505,681 3517,671 3528,661 3544,657 3565,657 L 3622,657 3622,639 C 3622,615 3605,601 3573,601 3552,601 3536,608 3526,623 L 3507,606 C 3516,595 3525,588 3535,583 3545,580 3558,578 3574,578 3624,578 3649,599 3649,636 L 3649,764 Z"></path> </g> </g> <g class="com.sun.star.drawing.PolyPolygonShape"> <g id="id45"> <rect class="BoundingBox" stroke="none" fill="none" x="1698" y="948" width="55" height="275"></rect> <path fill="#d1d5db" stroke="none" d="M 1752,1221 L 1699,1221 1699,948 1752,948 1752,1221 Z"></path> </g> </g> <g class="com.sun.star.drawing.ClosedBezierShape"> <g id="id46"> <rect class="BoundingBox" stroke="none" fill="none" x="1810" y="1019" width="168" height="204"></rect> <path fill="#d1d5db" stroke="none" d="M 1977,1221 L 1927,1221 1927,1100 C 1927,1088 1923,1078 1916,1072 1911,1067 1903,1064 1895,1064 1885,1064 1878,1067 1872,1072 1864,1078 1861,1088 1861,1100 L 1861,1221 1811,1221 1811,1022 1860,1022 1860,1040 C 1873,1026 1889,1019 1910,1019 1929,1019 1945,1025 1957,1037 1970,1051 1977,1069 1977,1093 L 1977,1221 Z"></path> </g> </g> <g class="com.sun.star.drawing.ClosedBezierShape"> <g id="id47"> <rect class="BoundingBox" stroke="none" fill="none" x="2015" y="946" width="109" height="277"></rect> <path fill="#d1d5db" stroke="none" d="M 2123,1065 L 2086,1065 2086,1221 2037,1221 2037,1065 2016,1065 2016,1028 2037,1028 2037,1003 C 2037,987 2041,974 2051,964 2061,951 2076,946 2095,946 L 2123,946 2123,987 2104,987 C 2092,987 2086,994 2086,1006 L 2086,1028 2123,1028 2123,1065 Z"></path> </g> </g> <g class="com.sun.star.drawing.ClosedBezierShape"> <g id="id48"> <rect class="BoundingBox" stroke="none" fill="none" x="2152" y="1019" width="170" height="206"></rect> <path fill="#d1d5db" stroke="none" d="M 2271,1121 C 2271,1097 2268,1081 2260,1073 2254,1067 2246,1064 2237,1064 2228,1064 2220,1067 2214,1073 2207,1081 2203,1097 2203,1121 2203,1146 2207,1162 2214,1169 2220,1175 2228,1178 2237,1178 2246,1178 2254,1175 2260,1169 2268,1162 2271,1146 2271,1121 Z M 2321,1121 C 2321,1140 2320,1155 2317,1166 2314,1179 2308,1189 2299,1198 2284,1215 2262,1223 2237,1223 2211,1223 2191,1215 2175,1198 2166,1189 2161,1179 2157,1166 2154,1155 2153,1140 2153,1121 2153,1085 2161,1060 2176,1044 2191,1028 2211,1019 2237,1019 2262,1019 2284,1028 2298,1044 2314,1060 2321,1085 2321,1121 Z"></path> </g> </g> <g class="com.sun.star.drawing.ClosedBezierShape"> <g id="id49"> <rect class="BoundingBox" stroke="none" fill="none" x="2368" y="1019" width="147" height="204"></rect> <path fill="#d1d5db" stroke="none" d="M 2514,1038 L 2477,1076 C 2469,1068 2460,1064 2450,1064 2442,1064 2435,1067 2429,1073 2422,1079 2418,1089 2418,1100 L 2418,1221 2369,1221 2369,1022 2417,1022 2417,1041 C 2429,1026 2446,1019 2468,1019 2486,1019 2502,1026 2514,1038 Z"></path> </g> </g> <g class="com.sun.star.drawing.ClosedBezierShape"> <g id="id50"> <rect class="BoundingBox" stroke="none" fill="none" x="2542" y="1019" width="283" height="204"></rect> <path fill="#d1d5db" stroke="none" d="M 2824,1221 L 2774,1221 2774,1100 C 2774,1088 2770,1078 2763,1072 2758,1067 2751,1064 2742,1064 2733,1064 2726,1067 2720,1072 2712,1078 2709,1087 2709,1099 L 2709,1221 2658,1221 2658,1100 C 2658,1088 2655,1078 2648,1072 2642,1067 2635,1064 2626,1064 2617,1064 2609,1067 2603,1072 2596,1078 2592,1088 2592,1100 L 2592,1221 2543,1221 2543,1022 2591,1022 2591,1040 C 2605,1026 2621,1019 2641,1019 2664,1019 2681,1028 2694,1044 2710,1028 2729,1019 2754,1019 2774,1019 2791,1025 2802,1037 2817,1051 2824,1070 2824,1093 L 2824,1221 Z"></path> </g> </g> <g class="com.sun.star.drawing.ClosedBezierShape"> <g id="id51"> <rect class="BoundingBox" stroke="none" fill="none" x="2863" y="925" width="167" height="300"></rect> <path fill="#d1d5db" stroke="none" d="M 2978,1147 L 2978,1136 2939,1136 C 2921,1136 2912,1144 2912,1159 2912,1175 2921,1182 2940,1182 2957,1182 2969,1178 2974,1169 2977,1165 2978,1157 2978,1147 Z M 2971,990 L 2938,990 2894,925 2946,925 2971,990 Z M 3029,1221 L 2980,1221 2980,1203 C 2967,1216 2951,1223 2931,1223 2909,1223 2892,1217 2880,1205 2869,1194 2864,1179 2864,1161 2864,1143 2869,1130 2881,1119 2893,1108 2910,1102 2932,1102 L 2978,1102 2978,1093 C 2978,1072 2966,1061 2942,1061 2926,1061 2913,1067 2903,1077 L 2872,1047 C 2881,1037 2892,1029 2903,1025 2913,1021 2926,1019 2944,1019 3001,1019 3029,1043 3029,1090 L 3029,1221 Z"></path> </g> </g> <g class="com.sun.star.drawing.ClosedBezierShape"> <g id="id52"> <rect class="BoundingBox" stroke="none" fill="none" x="3065" y="969" width="107" height="254"></rect> <path fill="#d1d5db" stroke="none" d="M 3171,1221 L 3145,1221 C 3125,1221 3111,1215 3100,1203 3091,1192 3087,1179 3087,1164 L 3087,1065 3066,1065 3066,1028 3087,1028 3087,969 3137,969 3137,1028 3171,1028 3171,1065 3137,1065 3137,1161 C 3137,1173 3143,1178 3154,1178 L 3171,1178 3171,1221 Z"></path> </g> </g> <g class="com.sun.star.drawing.PolyPolygonShape"> <g id="id53"> <rect class="BoundingBox" stroke="none" fill="none" x="3215" y="948" width="52" height="275"></rect> <path fill="#d1d5db" stroke="none" d="M 3266,1221 L 3216,1221 3216,1022 3266,1022 3266,1221 Z M 3266,988 L 3216,988 3216,948 3266,948 3266,988 Z"></path> </g> </g> <g class="com.sun.star.drawing.ClosedBezierShape"> <g id="id54"> <rect class="BoundingBox" stroke="none" fill="none" x="3311" y="1019" width="156" height="206"></rect> <path fill="#d1d5db" stroke="none" d="M 3466,1196 C 3449,1214 3427,1223 3400,1223 3376,1223 3356,1216 3341,1202 3321,1184 3312,1157 3312,1121 3312,1084 3321,1058 3341,1040 3356,1026 3376,1019 3400,1019 3427,1019 3449,1028 3466,1046 L 3433,1079 C 3423,1069 3413,1064 3401,1064 3389,1064 3379,1068 3372,1077 3365,1086 3361,1101 3361,1121 3361,1141 3365,1156 3372,1165 3379,1174 3389,1178 3401,1178 3413,1178 3423,1173 3433,1162 L 3466,1196 Z"></path> </g> </g> <g class="com.sun.star.drawing.ClosedBezierShape"> <g id="id55"> <rect class="BoundingBox" stroke="none" fill="none" x="3490" y="1019" width="167" height="206"></rect> <path fill="#d1d5db" stroke="none" d="M 3606,1147 L 3606,1136 3567,1136 C 3548,1136 3539,1144 3539,1159 3539,1175 3548,1182 3567,1182 3585,1182 3596,1178 3601,1169 3605,1165 3606,1157 3606,1147 Z M 3656,1221 L 3607,1221 3607,1203 C 3594,1216 3578,1223 3558,1223 3536,1223 3519,1217 3508,1205 3497,1194 3491,1179 3491,1161 3491,1143 3497,1130 3509,1119 3520,1108 3537,1102 3559,1102 L 3606,1102 3606,1093 C 3606,1072 3594,1061 3569,1061 3553,1061 3540,1067 3531,1077 L 3499,1047 C 3509,1037 3519,1029 3530,1025 3541,1021 3554,1019 3571,1019 3628,1019 3656,1043 3656,1090 L 3656,1221 Z"></path> </g> </g> </g> </g> </g> </g> </g> </svg> 